<mxfile host="app.diagrams.net" modified="2023-06-13T07:55:57.029Z" agent="Mozilla/5.0 (Windows NT 10.0; Win64; x64; rv:109.0) Gecko/20100101 Firefox/110.0" version="21.3.7" etag="TyqlwgIFexLmAyO_b8Oc" type="github">
  <diagram name="Page-1" id="aAZw_4xiwKafa_tFNMp_">
    <mxGraphModel>
      <root>
        <mxCell id="0" />
        <mxCell id="1" parent="0" />
      </root>
    </mxGraphModel>
  </diagram>
</mxfile>
